<svg width="110" height="110" viewBox="0 0 110 110" fill="none" xmlns="http://www.w3.org/2000/svg">
<rect y="-0.00292969" width="110" height="110" rx="55" fill="#E9E6FC"/>
<path fill-rule="evenodd" clip-rule="evenodd" d="M31 72.3905H71.0644L70.788 70.7352C69.2498 61.5581 60.9378 54.8981 51.0322 54.8981C41.1267 54.8981 32.8179 61.5581 31.2764 70.7352L31 72.3937L31 72.3905Z" stroke="black" stroke-width="2" stroke-linecap="round" stroke-linejoin="round"/>
<path d="M51.0333 33.9971C46.6528 33.9971 43.2188 37.4312 43.2188 41.8116C43.2188 46.1953 46.6528 49.6293 51.0333 49.6293C55.4169 49.6293 58.851 46.1953 58.851 41.8116C58.851 37.4312 55.4169 33.9971 51.0333 33.9971" stroke="black" stroke-width="2"/>
<circle cx="71.0649" cy="63.563" r="12.4341" fill="#E9E6FC" stroke="black" stroke-width="2" stroke-linecap="round" stroke-linejoin="round"/>
<path d="M76.6233 60.0875L69.5569 67.548L66.3652 64.1567" stroke="black" stroke-width="2" stroke-linecap="round"/>
</svg>
