<svg width="110" height="110" viewBox="0 0 110 110" fill="none" xmlns="http://www.w3.org/2000/svg">
<rect y="-0.00292969" width="110" height="110" rx="55" fill="#E9E6FC"/>
<path d="M60.7823 26.0085C61.4473 26.4442 62.0894 26.9029 62.7888 27.2812C63.1672 27.4876 63.6028 27.6366 64.0385 27.694C64.9329 27.8086 65.2883 28.3819 64.8755 29.196C63.6372 31.684 62.3875 34.1606 61.1492 36.6486C61.069 36.8206 60.9887 36.9926 60.9658 37.0384C61.2753 37.4053 61.5276 37.7378 61.8142 38.0245C61.8945 38.1162 62.0779 38.1506 62.2155 38.1391C62.6627 38.1047 63.0984 38.0015 63.5341 38.0015C65.059 38.013 65.7928 37.4053 66.0106 35.8804C66.2629 34.195 67.4209 32.9452 69.0834 32.6012C69.393 32.5325 69.7255 32.5668 70.035 32.521C70.6083 32.4407 71.1701 32.3375 71.8925 32.2229C72.1332 32.5095 72.5116 32.9452 72.9129 33.4268C72.3167 34 71.6173 34.2408 70.8491 34.344C70.723 34.3555 70.5968 34.3555 70.4707 34.3555C68.5445 34.3555 68.0744 34.7797 67.7075 36.6945C67.4323 38.1391 66.5266 39.0908 65.1851 39.6526C65.8386 39.8704 66.5495 39.5723 67.0998 38.8385C67.7992 37.9098 68.6936 37.3365 69.863 37.1989C70.7688 37.0843 71.5829 37.3251 72.374 37.7608C72.89 38.0359 73.4632 38.2079 74.1626 38.4946C74.2314 38.8385 74.3346 39.3889 74.4378 39.9851C73.876 40.2488 73.3027 40.1341 72.7753 39.9736C72.3281 39.836 71.8925 39.6067 71.4797 39.3659C70.4593 38.7583 69.3471 38.9417 68.6133 39.8704C67.1113 41.7737 65.208 42.1291 63.1442 40.9023C63.064 40.8565 62.9952 40.8106 62.9149 40.7762C62.2384 40.4322 62.1811 40.4437 61.8257 41.189C62.0091 41.2463 62.1811 41.3036 62.3646 41.3609C69.7255 43.849 74.1856 48.9053 75.722 56.507C75.9513 57.6306 75.9857 58.8116 75.9857 59.9696C76.0086 65.2438 75.9971 70.5294 75.9971 75.8035C75.9971 78.8075 74.0938 80.6993 71.0784 80.6993C60.3237 80.6993 49.569 80.6993 38.8143 80.6993C36.3721 80.6993 34.5261 79.2432 34.079 76.9616C34.0102 76.6176 34.0102 76.2507 34.0102 75.8953C34.0102 70.5294 33.9873 65.1635 34.0102 59.7861C34.0446 51.0838 39.5137 43.7802 47.8491 41.2922C47.9523 41.2578 48.0441 41.2119 48.1472 41.1775C47.3905 39.2857 47.6198 38.3455 49.1104 37.1645C48.9269 36.7976 48.7435 36.4078 48.56 36.0295C47.4478 33.8051 46.3242 31.5693 45.2121 29.345C44.719 28.3475 45.0057 27.843 46.0949 27.694C46.4847 27.6366 46.886 27.4876 47.23 27.2812C47.9179 26.8914 48.56 26.4328 49.225 25.9971C50.0047 25.9971 50.7958 25.9971 51.5755 25.9971C52.2405 26.4098 52.9169 26.7882 53.559 27.2239C54.4533 27.843 55.5655 27.8545 56.4598 27.2354C57.1019 26.7882 57.7783 26.4098 58.4319 25.9971C59.2115 26.0085 60.0027 26.0085 60.7823 26.0085ZM54.9693 78.8649C60.3352 78.8649 65.701 78.8305 71.0784 78.8878C72.9014 78.9107 74.2314 77.6495 74.2085 75.7691C74.1512 70.5065 74.197 65.2437 74.1741 59.9925C74.1741 58.9606 74.0938 57.9287 73.9563 56.9083C72.9358 49.9716 67.2374 44.0439 60.3696 42.691C57.893 42.2094 55.3935 42.3241 52.9055 42.3699C51.6901 42.3928 50.4518 42.5534 49.2594 42.8171C41.7036 44.4337 35.9364 51.4507 35.8561 59.167C35.7988 64.7163 35.8332 70.2542 35.8332 75.8035C35.8332 77.7871 36.9224 78.8649 38.9175 78.8649C44.2604 78.8649 49.6148 78.8649 54.9693 78.8649ZM47.2873 29.4253C48.4683 31.7872 49.6607 34.1835 50.8761 36.5569C50.9563 36.7059 51.2315 36.8206 51.4264 36.8206C53.8112 36.8435 56.2075 36.8206 58.5924 36.8435C58.9364 36.8435 59.0854 36.7059 59.223 36.4193C60.3352 34.172 61.4588 31.9248 62.5824 29.6775C62.6397 29.5743 62.6741 29.4597 62.6971 29.4023C62.1009 28.9667 61.539 28.5654 60.9772 28.1641C60.0714 27.5105 58.8332 27.5105 58.0191 28.2902C56.3107 29.9183 53.6966 29.9183 51.9882 28.2902C51.1856 27.522 49.9703 27.5105 49.076 28.1411C48.4912 28.5539 47.9179 28.9781 47.2873 29.4253ZM55.0037 40.501C56.2534 40.501 57.5032 40.501 58.7529 40.501C59.051 40.501 59.3606 40.5125 59.6587 40.4781C60.1402 40.4322 60.4498 40.0883 60.4727 39.6411C60.4957 39.1596 60.1976 38.7927 59.7045 38.7009C59.5326 38.6665 59.3491 38.6665 59.1771 38.6665C56.391 38.6665 53.6163 38.6665 50.8302 38.6665C50.6123 38.6665 50.3945 38.6665 50.1996 38.7239C49.7524 38.85 49.5231 39.171 49.546 39.6411C49.569 40.0883 49.8212 40.3749 50.2569 40.4666C50.4518 40.501 50.6467 40.501 50.8417 40.501C52.2175 40.501 53.6163 40.501 55.0037 40.501Z" fill="black"/>
<path d="M67.789 61.5175C67.789 68.5803 62.0562 74.3016 54.9934 74.2902C47.9306 74.2787 42.2437 68.5918 42.2208 61.529C42.1978 54.4776 47.9306 48.7219 54.9934 48.7104C62.0448 48.7104 67.7775 54.4547 67.789 61.5175ZM65.9545 61.5175C65.9545 55.4637 61.0587 50.5564 55.0164 50.5449C48.974 50.5335 44.0667 55.4522 44.0553 61.506C44.0438 67.5599 48.9396 72.4671 54.9934 72.4671C61.0472 72.4671 65.9545 67.5713 65.9545 61.5175Z" fill="black"/>
<path d="M59.9172 55.5094C60.2726 55.8648 60.6854 56.2547 61.0408 56.6101C57.3948 60.2561 53.7487 63.9022 50.1026 67.5483C49.7472 67.1814 49.3459 66.7801 49.002 66.4246C52.6251 62.79 56.2597 59.1555 59.9172 55.5094Z" fill="black"/>
<path d="M58.6469 67.8924C57.1334 67.8924 55.9295 66.6885 55.918 65.1865C55.9066 63.6616 57.1449 62.4118 58.6583 62.4233C60.1488 62.4348 61.3757 63.6616 61.3986 65.1521C61.4215 66.6541 60.1718 67.8924 58.6469 67.8924ZM59.5641 65.1521C59.5526 64.6591 59.1169 64.2463 58.6239 64.2578C58.1194 64.2693 57.7296 64.6935 57.7525 65.2094C57.7755 65.7025 58.1538 66.0693 58.6469 66.0693C59.1628 66.0579 59.5756 65.6451 59.5641 65.1521Z" fill="black"/>
<path d="M51.3363 60.589C49.8343 60.5775 48.619 59.3621 48.6075 57.8716C48.596 56.3696 49.8572 55.1199 51.3707 55.1199C52.8727 55.1199 54.0766 56.3352 54.088 57.8487C54.088 59.3736 52.8727 60.589 51.3363 60.589ZM52.2536 57.8372C52.2421 57.3327 51.8293 56.92 51.3248 56.9429C50.8548 56.9544 50.4535 57.3671 50.442 57.8372C50.4305 58.3302 50.8548 58.7545 51.3592 58.7545C51.8637 58.7545 52.2536 58.3646 52.2536 57.8372Z" fill="black"/>
</svg>
